<svg fill="none" height="600" viewBox="0 0 601 600" width="601" xmlns="http://www.w3.org/2000/svg" xmlns:xlink="http://www.w3.org/1999/xlink"><linearGradient id="a"><stop offset="0" stop-color="#fff"/><stop offset="1" stop-color="#fff" stop-opacity="0"/></linearGradient><linearGradient id="b" gradientUnits="userSpaceOnUse" x1="588.058" x2="364.033" xlink:href="#a" y1="114.638" y2="326.972"/><linearGradient id="c" gradientUnits="userSpaceOnUse" x1="551.876" x2="327.852" xlink:href="#a" y1="149.392" y2="361.726"/><linearGradient id="d"><stop offset="0" stop-color="#818cf8"/><stop offset="1" stop-color="#818cf8"/></linearGradient><linearGradient id="e" gradientUnits="userSpaceOnUse" x1="134.714" x2="110.26" xlink:href="#d" y1="320.566" y2="320.566"/><linearGradient id="f" gradientUnits="userSpaceOnUse" x1="206.339" x2="181.885" xlink:href="#d" y1="421.206" y2="421.206"/><linearGradient id="g" gradientUnits="userSpaceOnUse" x1="368.16" x2="376.256" xlink:href="#a" y1="196.711" y2="399.958"/><linearGradient id="h" gradientUnits="userSpaceOnUse" x1="339.219" x2="347.315" xlink:href="#a" y1="211.191" y2="414.438"/><linearGradient id="i" gradientUnits="userSpaceOnUse" x1="279.048" x2="254.594" xlink:href="#d" y1="277.702" y2="277.702"/><linearGradient id="j" gradientUnits="userSpaceOnUse" x1="368.144" x2="376.24" xlink:href="#a" y1="353.776" y2="557.023"/><linearGradient id="k" gradientUnits="userSpaceOnUse" x1="339.204" x2="347.3" xlink:href="#a" y1="368.981" y2="572.227"/><linearGradient id="l" gradientUnits="userSpaceOnUse" x1="279.048" x2="254.594" xlink:href="#d" y1="435.467" y2="435.467"/><linearGradient id="m" gradientUnits="userSpaceOnUse" x1="192.18" x2="72.012" xlink:href="#a" y1="53.8207" y2="261.857"/><linearGradient id="n" gradientUnits="userSpaceOnUse" x1="125.959" x2="93.6914" xlink:href="#d" y1="113.461" y2="113.461"/><linearGradient id="o" gradientUnits="userSpaceOnUse" x1="138.294" x2="81.4277" xlink:href="#d" y1="171.925" y2="171.925"/><linearGradient id="p" gradientUnits="userSpaceOnUse" x1="94.0532" x2=".000002" xlink:href="#d" y1="247.389" y2="247.389"/><linearGradient id="q" gradientUnits="userSpaceOnUse" x1="221.158" x2="184.449" xlink:href="#a" y1="39.8764" y2="60.3243"/><linearGradient id="r" gradientUnits="userSpaceOnUse" x1="192.494" x2="229.203" xlink:href="#a" y1="543.86" y2="523.412"/><path d="m546.232 252.902c0 3.258-.072 6.516-.289 9.557 31.11 23.676 55.057 74.43 55.057 119.102 0 48.655-28.433 71.606-63.522 51.334-.072-.073-.145-.073-.217-.145l-220.446-127.211c-.073-.073-.145-.073-.29-.145-39.43-22.807-71.408-85.58-71.408-140.244 0-51.189 28.071-77.1811 64.029-61.47 4.413-35.115 27.926-50.2471 56.287-33.8117 13.602 7.8919 26.118 21.7207 35.885 38.3737 14.18-21.0695 38.345-26.4273 65.692-10.6436 43.771 25.1966 79.222 94.7746 79.222 155.3036z" fill="url(#b)" opacity=".07"/><path d="m510.058 287.655c0 3.258-.072 6.517-.289 9.557 31.11 23.676 55.057 74.43 55.057 119.103 0 48.654-28.433 71.606-63.522 51.333-.072-.072-.145-.072-.217-.145l-220.446-127.211c-.072-.072-.145-.072-.29-.145-39.43-22.807-71.408-85.58-71.408-140.244 0-51.188 28.072-77.181 64.029-61.469 4.413-35.116 27.926-50.2477 56.287-33.812 13.602 7.892 26.118 21.72 35.885 38.373 14.18-21.069 38.345-26.427 65.693-10.643 43.771 25.196 79.221 94.775 79.221 155.303z" fill="url(#c)" opacity=".4"/><path d="m161.048 349.632-33.569-19.404v-11.367l33.569 19.404c2.75 1.593 6.729 4.778 10.129 9.702 3.69 5.285 6.294 11.946 6.294 19.186 0 7.965-2.025 12.526-5.932 13.829-3.618 1.231-7.886-.869-10.563-2.389l-13.819-7.964-.072-.073c-1.158-.724-3.039-1.375-4.558-.941-1.23.362-2.605 1.593-2.605 6.009 0 4.417 1.375 7.168 2.533 8.761 1.447 2.027 3.328 3.475 4.485 4.055l.145.072 42.179 24.4v11.367l-41.962-24.255c-2.894-1.52-7.018-4.706-10.635-9.774-3.907-5.503-6.656-12.526-6.584-20.345 0-7.747 2.677-11.73 6.584-12.816 3.617-1.013 7.741.435 10.635 2.245l13.674 7.892c1.953 1.158 3.473 1.665 4.413 1.303.724-.217 2.171-1.303 2.171-7.095 0-3.693-1.23-6.155-2.315-7.82-1.303-1.882-3.111-3.33-4.197-3.982z" fill="#fff" opacity=".2"/><path d="m134.714 327.404c0 9.34-5.499 13.757-12.227 9.919-6.729-3.909-12.227-14.625-12.227-24.037 0-9.34 5.498-13.757 12.227-9.919 6.728 3.909 12.227 14.697 12.227 24.037z" fill="url(#e)"/><path d="m206.339 428.044c0 9.34-5.499 13.756-12.227 9.919-6.729-3.91-12.227-14.625-12.227-24.038 0-9.34 5.498-13.756 12.227-9.919 6.728 3.91 12.227 14.698 12.227 24.038z" fill="url(#f)"/><path d="m264.145 187.522 216.973 125.329v114.903l-217.046-125.329z" fill="url(#g)" opacity=".07"/><path d="m235.133 202.003 216.973 125.329v114.903l-216.973-125.329z" fill="url(#h)" opacity=".3"/><path d="m254.594 270.424c0 9.267 5.498 19.911 12.227 23.82 6.728 3.91 12.227-.434 12.227-9.702 0-9.267-5.499-19.91-12.227-23.82-6.729-3.91-12.227.434-12.227 9.702z" fill="url(#i)"/><g fill="#fff"><path d="m285.199 288.307c0 4.272 2.532 9.268 5.716 11.078 3.111 1.81 5.643-.217 5.643-4.489s-2.532-9.268-5.716-11.078c-3.111-1.81-5.643.217-5.643 4.489z" opacity=".15"/><path d="m302.635 298.371c0 4.271 2.532 9.267 5.715 11.077 3.111 1.81 5.644-.217 5.644-4.489 0-4.271-2.533-9.267-5.716-11.077-3.111-1.81-5.643.217-5.643 4.489z" opacity=".15"/><path d="m397.338 317.919v65.38l-8.537-4.923v-65.38z" opacity=".15"/><path d="m416.004 328.78v65.379l-8.537-4.923v-65.38z" opacity=".15"/><path d="m434.742 339.64v65.38l-8.537-4.924v-65.379z" opacity=".15"/></g><path d="m264.072 344.563 216.974 125.329v114.903l-216.974-125.329z" fill="url(#j)" opacity=".07"/><path d="m235.133 359.768 216.973 125.329v114.903l-216.973-125.329z" fill="url(#k)" opacity=".3"/><path d="m254.594 428.188c0 9.268 5.498 19.911 12.227 23.821 6.728 3.91 12.227-.435 12.227-9.702 0-9.268-5.499-19.911-12.227-23.82-6.729-3.91-12.227.434-12.227 9.701z" fill="url(#l)"/><path d="m285.199 446.145c0 4.271 2.532 9.267 5.716 11.077 3.111 1.81 5.643-.217 5.643-4.489s-2.532-9.267-5.716-11.077c-3.111-1.81-5.643.144-5.643 4.489z" fill="#fff" opacity=".15"/><path d="m302.562 456.208c0 4.272 2.533 9.268 5.716 11.078 3.111 1.81 5.643-.217 5.643-4.489s-2.532-9.267-5.715-11.078c-3.111-1.882-5.644.145-5.644 4.489z" fill="#fff" opacity=".15"/><path d="m397.338 477.929v65.38l-8.537-4.924v-65.379z" fill="#fff" opacity=".15"/><path d="m416.004 488.79v65.379l-8.537-4.923v-65.38z" fill="#fff" opacity=".15"/><path d="m434.742 499.65v65.379l-8.537-4.923v-65.379z" fill="#fff" opacity=".15"/><path d="m42.4688 31.7847 135.2192 78.1223v250.73l-135.2192-78.195z" fill="url(#m)" opacity=".3"/><path d="m125.959 122.577c0 12.526-7.235 18.463-16.134 13.25s-16.1336-19.549-16.1336-32.074c0-12.5258 7.2346-18.4629 16.1336-13.2499s16.134 19.5489 16.134 32.0739z" fill="url(#n)"/><path d="m109.825 145.891c-14.3976-8.398-26.2628-.507-28.3609 17.594-.3617 3.113 2.0258 7.313 4.9197 8.978l46.9542 27.441c2.894 1.665 5.282.362 4.92-3.259-2.171-20.634-14.108-42.355-28.433-50.754z" fill="url(#o)"/><path d="m69.5996 194.401 80.5964 46.555v9.846l-80.5964-46.554z" fill="#fff" opacity=".15"/><path d="m77.7754 218.656 63.8836 36.853v9.846l-63.8836-36.853z" fill="#fff" opacity=".15"/><path d="m94.0532 260.07-94.0532-54.374v28.02l94.0532 54.374z" fill="url(#p)"/><path d="m206.845 0 20.113 39.5318c2.749 5.4302 2.315 10.8604-1.013 12.1636-3.328 1.3033-8.247-2.0997-10.997-7.5298l-.217-.5069v43.876c0 4.9958-3.472 7.023-7.813 4.5613-4.341-2.5341-7.814-8.5435-7.814-13.5392v-43.876l-.217.2172c-2.749 2.2445-7.741-.0724-10.997-5.213-3.328-5.1405-3.762-11.0775-1.013-13.322z" fill="url(#q)" opacity=".2"/><path d="m206.845 583.709-20.112-39.532c-2.75-5.43-2.316-10.86 1.012-12.163s8.248 2.099 10.997 7.53l.217.506v-43.876c0-4.995 3.473-7.023 7.814-4.561 4.341 2.534 7.814 8.544 7.814 13.539v43.876l.217-.217c2.749-2.244 7.741.073 10.997 5.213 3.328 5.141 3.762 11.078 1.013 13.322z" fill="url(#r)" opacity=".2"/></svg>