<svg fill="none" viewBox="0 0 105 48" xmlns="http://www.w3.org/2000/svg"><g fill="#9ca3af"><path clip-rule="evenodd" d="m18 4-18 6v19.5l6 2v5.5l18 6v-31.5l-6 2zm-10 28.167 10 3.333v-19.892l4-1.333v25.95l-14-4.665v-3.392z" fill-rule="evenodd"/><path d="m42.9 20.45v10.55h4.446v-10.55h3.53v-3.392h-11.486v3.393h3.51zm10.205 4.798c0 3.978 2.3 6.006 6.376 6.006 3.9 0 6.396-1.853 6.396-6.045v-8.151h-4.446v7.995c0 1.833-.39 2.73-1.95 2.73-1.58 0-1.97-.897-1.97-2.71v-8.015h-4.406z"/><path clip-rule="evenodd" d="m68.965 31v-13.942h5.558c4.017 0 5.733 1.794 5.733 4.777v.078c0 2.906-1.93 4.544-5.538 4.544h-1.346v4.543zm5.323-7.507h-.916v-3.14h.936c1.15 0 1.755.43 1.755 1.502v.078c0 1.033-.605 1.56-1.775 1.56z" fill-rule="evenodd"/><path d="m82.563 31v-13.942h4.427v10.53h5.07v3.412zm11.999-13.942v13.942h10.218v-3.393h-5.811v-2.086h4.368v-3.1h-4.368v-1.97h5.499v-3.393z"/></g></svg>